<?xml version="1.0" encoding="utf-8"?>
<!-- Generator: Adobe Illustrator 22.0.1, SVG Export Plug-In . SVG Version: 6.00 Build 0)  -->
<svg version="1.1" id="Слой_1" xmlns="http://www.w3.org/2000/svg" xmlns:xlink="http://www.w3.org/1999/xlink" x="0px" y="0px"
	 viewBox="0 0 24 24" style="enable-background:new 0 0 24 24;" xml:space="preserve">
<path d="M19.6,10.6l-8.1,8.1c-1.6,1.6-4.1,1.6-5.7,0s-1.6-4.1,0-5.7l8.8-8.8c1-1,2.6-1,3.5,0s1,2.6,0,3.5l-7.4,7.4
	c-0.4,0.4-1,0.4-1.4,0c-0.4-0.4-0.4-1,0-1.4L16,7.1L15,6l-6.7,6.7c-1,1-1,2.6,0,3.5s2.6,1,3.5,0l7.4-7.4c1.6-1.6,1.6-4.1,0-5.7
	s-4.1-1.6-5.7,0L4.7,12c-2.1,2.1-2.1,5.6,0,7.8s5.6,2.1,7.8,0l8.1-8.1L19.6,10.6z"/>
</svg>
