<svg width="45" height="40" viewBox="0 0 45 40" fill="none" xmlns="http://www.w3.org/2000/svg">
<path d="M45 22.0811C45 9.88586 34.9252 0 22.5034 0C10.0748 0 0 9.88586 0 22.0811V32.2514C0 36.5327 10.0748 40 22.5034 40C34.932 40 45 36.5261 45 32.2448V22.0811Z" fill="url(#paint0_linear_2_14739)"/>
<path opacity="0.55" d="M9.14954 5.86279C7.68695 7.15312 6.19716 8.78091 5.83661 10.3491C5.7958 10.5146 5.77539 10.68 5.76178 10.8454C5.75498 10.991 5.75498 11.1498 5.85702 11.2557C5.95226 11.3483 6.09512 11.3748 6.22437 11.3814C7.17675 11.4476 8.10192 11.0704 8.97267 10.6932C9.8094 10.3293 10.6393 9.94551 11.4625 9.54187C10.4489 8.43682 9.63253 7.25237 9.14954 5.86279Z" fill="url(#paint1_linear_2_14739)"/>
<path opacity="0.55" d="M17.272 1.07206C15.0543 1.48894 13.0271 2.43517 11.1699 3.81813L10.925 4.00341C11.2516 5.64444 12.2516 6.92814 13.4148 8.09936C16.3332 6.50465 19.0747 4.61218 21.4148 2.28298C21.8706 1.8264 21.6529 1.28381 21.0611 1.01251C20.7142 0.8537 20.3128 0.833849 19.9319 0.833849C19.0339 0.820615 18.1495 0.906636 17.272 1.07206Z" fill="url(#paint2_linear_2_14739)"/>
<path opacity="0.39" d="M22.1906 13.287C28.3266 13.287 33.4627 9.27708 35.3947 3.97683C35.2042 3.84449 35.0069 3.71877 34.8096 3.58643C32.9525 8.5492 27.9933 11.56 22.1906 11.56C16.5171 11.56 11.6532 8.69478 9.70079 3.91066C9.50351 4.043 9.31303 4.17534 9.12256 4.3143C11.143 9.46235 16.1838 13.287 22.1906 13.287Z" fill="white"/>
<path d="M22.1906 12.8439C28.0545 12.8439 33.313 9.317 35.3879 3.97705C35.1974 3.84471 35.0001 3.71899 34.8096 3.59326C32.2586 10.3691 24.5443 13.8563 17.5715 11.3749C13.9729 10.0978 11.109 7.37821 9.69399 3.9175C9.50351 4.04984 9.31303 4.18218 9.12256 4.32114C11.2994 9.47581 16.4627 12.8439 22.1906 12.8439Z" fill="url(#paint3_radial_2_14739)"/>
<path opacity="0.58" d="M39.8842 17.992C39.6325 15.1135 36.721 14.604 35.0611 14.5445C34.6801 14.5312 34.2992 14.5379 33.9182 14.571H10.6189C10.238 14.5379 9.85702 14.5246 9.47607 14.5445C7.8162 14.604 4.90464 15.1135 4.65294 17.992C4.31961 21.8298 4.0475 26.3493 4.35362 28.3278C4.38083 28.5395 4.46246 28.738 4.57131 28.9167C4.85702 29.36 5.48967 30.0151 7.16995 30.6834C9.29239 31.5238 18.0883 34.561 22.2652 34.9514V34.958V34.9514C26.4489 34.561 35.238 31.5238 37.3604 30.6834C39.0475 30.0151 39.6733 29.36 39.9591 28.9167C40.0747 28.738 40.1495 28.5395 40.1767 28.3278C40.4965 26.3559 40.2244 21.8365 39.8842 17.992Z" fill="white"/>
<path d="M39.1429 18.4484C38.9048 15.8016 36.1157 15.3318 34.5239 15.2789C34.1565 15.2656 33.796 15.2722 33.4286 15.3053H11.1089C10.7484 15.2722 10.381 15.2656 10.0137 15.2789C8.42182 15.3318 5.63271 15.8016 5.39461 18.4484C5.07488 21.9819 4.80958 26.144 5.10209 27.9637C5.1293 28.1556 5.20413 28.3409 5.31298 28.5063C5.59189 28.9166 6.19053 29.5187 7.80277 30.1341C9.82998 30.9083 18.2586 33.7007 22.2654 34.0646V34.0712V34.0646C26.2722 33.7073 34.6939 30.9083 36.7211 30.1341C38.3402 29.5187 38.9388 28.9166 39.2109 28.5063C39.3198 28.3409 39.3946 28.1556 39.4218 27.9637C39.7211 26.1374 39.4626 21.9819 39.1429 18.4484Z" fill="url(#paint4_linear_2_14739)"/>
<path opacity="0.12" d="M11.4083 25.0985C13.4083 23.4311 15.6532 22.0679 18.0681 21.0489C20.5783 19.9902 23.177 19.3285 25.7756 18.9513C28.6736 18.5278 31.6056 18.5344 34.4967 19.0969C36.1498 19.4211 37.7688 19.9108 39.3198 20.5593C39.2654 19.8446 39.2042 19.13 39.143 18.4418C39.0001 16.9067 38.0001 16.0994 36.8777 15.6891C35.9185 15.5899 34.9661 15.3913 34.0069 15.2656C33.6532 15.2722 33.4287 15.2987 33.4287 15.2987H30.0409C25.8096 15.7156 21.6328 17.1515 17.5715 18.9447C15.0885 20.0365 12.6328 21.2474 10.0953 22.0481C9.02732 22.3856 7.95929 22.7693 6.87086 22.9612C6.26541 23.0671 5.65317 23.1002 5.04773 22.9745C4.93888 25.0324 4.92528 26.8918 5.09535 27.9505C5.12256 28.1424 5.19739 28.3277 5.30623 28.4931C5.53752 28.8372 5.9933 29.3136 7.08174 29.8231C8.29943 28.0696 9.75521 26.4749 11.4083 25.0985Z" fill="#2A5D94"/>
<path d="M19.4761 27.4937C19.8706 28.7178 20.857 29.8162 22.5577 29.8162C24.2584 29.8162 25.2652 28.7244 25.6393 27.4937" stroke="url(#paint5_radial_2_14739)" stroke-width="2" stroke-miterlimit="10" stroke-linecap="round"/>
<path opacity="0.16" d="M33.4285 15.2987H28.0952C29.1632 16.5625 30.4013 18.5145 30.5102 20.8371C30.6939 24.9595 31.2041 30.9612 31.2041 30.9612C31.2041 30.9612 37.4898 29.2672 37.8435 28.4401C38.2177 27.56 39.3673 16.6816 36.4081 15.5501L36.3809 15.5435C35.7755 15.3847 35.1496 15.2987 34.5238 15.2854C34.1564 15.259 33.7959 15.2722 33.4285 15.2987Z" fill="#2A5D94"/>
<path opacity="0.16" d="M10.0135 15.2719C9.4965 15.2852 8.9863 15.3447 8.4829 15.4506C8.38086 15.4837 8.29242 15.5101 8.21759 15.5432C5.25841 16.6814 6.40807 27.5532 6.78222 28.4332C7.13596 29.2603 13.4217 30.9543 13.4217 30.9543C13.4217 30.9543 13.9319 24.9527 14.1156 20.8302C14.2176 18.5143 15.4625 16.5623 16.5305 15.2918H11.1087C10.7414 15.2719 10.3809 15.2587 10.0135 15.2719Z" fill="#2A5D94"/>
<path opacity="0.31" d="M22.5033 39.9932C34.9319 39.9932 44.9999 36.5259 44.9999 32.2446V24.4365C44.8367 25.1313 44.6122 25.8129 44.3333 26.468C43.8707 27.5531 43.272 28.5854 42.5646 29.5383C41.1632 31.4241 39.2312 33.0585 36.9183 34.3488C34.6258 35.6193 31.9455 36.5325 29.17 37.0486C27.4149 37.3728 25.6054 37.5316 23.8027 37.6177C21.5986 37.7235 19.3945 37.7235 17.1904 37.6111C14.8435 37.5052 12.5033 37.2537 10.1904 36.8766C8.00673 36.506 5.85027 35.9965 3.83667 35.2488C2.57136 34.779 1.34687 34.1967 0.285645 33.4886C2.02034 37.1809 11.3061 39.9932 22.5033 39.9932Z" fill="#70A0D6"/>
<path d="M13.8979 25.1978C15.2016 25.1978 16.2584 24.161 16.2584 22.8819C16.2584 21.6028 15.2016 20.5659 13.8979 20.5659C12.5942 20.5659 11.5374 21.6028 11.5374 22.8819C11.5374 24.161 12.5942 25.1978 13.8979 25.1978Z" fill="url(#paint6_radial_2_14739)"/>
<path d="M30.5646 25.1978C31.8683 25.1978 32.9252 24.161 32.9252 22.8819C32.9252 21.6028 31.8683 20.5659 30.5646 20.5659C29.261 20.5659 28.2041 21.6028 28.2041 22.8819C28.2041 24.161 29.261 25.1978 30.5646 25.1978Z" fill="url(#paint7_radial_2_14739)"/>
<defs>
<linearGradient id="paint0_linear_2_14739" x1="9.63109" y1="8.97192" x2="30.8308" y2="34.5194" gradientUnits="userSpaceOnUse">
<stop stop-color="#D0EDF9"/>
<stop offset="0.34" stop-color="#B9D9F0"/>
<stop offset="0.74" stop-color="#A4C7E8"/>
<stop offset="1" stop-color="#9CC1E5"/>
</linearGradient>
<linearGradient id="paint1_linear_2_14739" x1="0.666585" y1="-0.396938" x2="8.41955" y2="10.3395" gradientUnits="userSpaceOnUse">
<stop stop-color="#F1F1F1"/>
<stop offset="1" stop-color="white"/>
</linearGradient>
<linearGradient id="paint2_linear_2_14739" x1="8.72738" y1="-6.61351" x2="16.4508" y2="4.08176" gradientUnits="userSpaceOnUse">
<stop stop-color="#F1F1F1"/>
<stop offset="1" stop-color="white"/>
</linearGradient>
<radialGradient id="paint3_radial_2_14739" cx="0" cy="0" r="1" gradientUnits="userSpaceOnUse" gradientTransform="translate(22.2552 8.21857) scale(9.87617 9.6066)">
<stop stop-color="#4DC2F9"/>
<stop offset="0.59" stop-color="#2E67B2"/>
<stop offset="1" stop-color="#18277F"/>
</radialGradient>
<linearGradient id="paint4_linear_2_14739" x1="4.97583" y1="24.6718" x2="39.5542" y2="24.6718" gradientUnits="userSpaceOnUse">
<stop stop-color="#1C1132"/>
<stop offset="0.54" stop-color="#150926"/>
<stop offset="1" stop-color="#0C0017"/>
</linearGradient>
<radialGradient id="paint5_radial_2_14739" cx="0" cy="0" r="1" gradientUnits="userSpaceOnUse" gradientTransform="translate(21.7292 28.2671) scale(4.80909 3.62893)">
<stop stop-color="#CCFBFF"/>
<stop offset="0.33" stop-color="#3AF5FF"/>
<stop offset="0.87" stop-color="#0CA1FD"/>
</radialGradient>
<radialGradient id="paint6_radial_2_14739" cx="0" cy="0" r="1" gradientUnits="userSpaceOnUse" gradientTransform="translate(13.906 22.9059) scale(2.3653 2.31668)">
<stop stop-color="#CCFBFF"/>
<stop offset="0.33" stop-color="#3AF5FF"/>
<stop offset="0.87" stop-color="#0CA1FD"/>
</radialGradient>
<radialGradient id="paint7_radial_2_14739" cx="0" cy="0" r="1" gradientUnits="userSpaceOnUse" gradientTransform="translate(30.5728 22.9059) scale(2.3653 2.31668)">
<stop stop-color="#CCFBFF"/>
<stop offset="0.33" stop-color="#3AF5FF"/>
<stop offset="0.87" stop-color="#0CA1FD"/>
</radialGradient>
</defs>
</svg>
