<svg width="20" height="21" viewBox="0 0 20 21" fill="none" xmlns="http://www.w3.org/2000/svg">
<path d="M9 11.5V5.5H11V11.5H9Z" fill="#C74952"/>
<path d="M10 15.5C9.30964 15.5 8.75 14.9404 8.75 14.25C8.75 13.5596 9.30964 13 10 13C10.6904 13 11.25 13.5596 11.25 14.25C11.25 14.9404 10.6904 15.5 10 15.5Z" fill="#C74952"/>
<path fill-rule="evenodd" clip-rule="evenodd" d="M10 20.5C4.47715 20.5 0 16.0228 0 10.5C0 4.97715 4.47715 0.5 10 0.5C15.5228 0.5 20 4.97715 20 10.5C20 16.0228 15.5228 20.5 10 20.5ZM10 18.5C14.4183 18.5 18 14.9183 18 10.5C18 6.08172 14.4183 2.5 10 2.5C5.58172 2.5 2 6.08172 2 10.5C2 14.9183 5.58172 18.5 10 18.5Z" fill="#C74952"/>
</svg>
