<svg width="24" height="25" viewBox="0 0 24 25" fill="none" xmlns="http://www.w3.org/2000/svg">
<path fill-rule="evenodd" clip-rule="evenodd" d="M12.0008 2.5C12.4002 2.5 12.7613 2.73765 12.9193 3.10447L15.3882 8.83763L21.6038 9.4141C22.0014 9.45099 22.339 9.72097 22.4625 10.1008C22.5859 10.4807 22.4714 10.8975 22.1714 11.1611L17.4818 15.2809L18.8542 21.3703C18.942 21.7599 18.7896 22.1644 18.4665 22.3992C18.1434 22.6339 17.7115 22.6539 17.3681 22.45L12.0008 19.263L6.63355 22.45C6.29013 22.6539 5.85832 22.6339 5.5352 22.3992C5.21209 22.1644 5.05964 21.7599 5.14746 21.3703L6.5199 15.2809L1.83029 11.1611C1.53023 10.8975 1.4158 10.4807 1.53922 10.1008C1.66264 9.72097 2.00024 9.45099 2.39792 9.4141L8.61343 8.83763L11.0824 3.10447C11.2404 2.73765 11.6014 2.5 12.0008 2.5ZM12.0008 6.02827L10.2155 10.174C10.0707 10.5102 9.75384 10.7404 9.38938 10.7742L4.8948 11.1911L8.28597 14.1702C8.56095 14.4118 8.68199 14.7843 8.60151 15.1413L7.60907 19.5448L11.4903 17.2402C11.805 17.0533 12.1967 17.0533 12.5114 17.2402L16.3926 19.5448L15.4002 15.1413C15.3197 14.7843 15.4407 14.4118 15.7157 14.1702L19.1069 11.1911L14.6123 10.7742C14.2478 10.7404 13.931 10.5102 13.7862 10.174L12.0008 6.02827Z" fill="#0B75BA"/>
</svg>
