<svg width="24" height="25" viewBox="0 0 24 25" fill="none" xmlns="http://www.w3.org/2000/svg">
<path d="M11.9989 2.5C12.3983 2.5 12.7594 2.73765 12.9173 3.10447L15.3863 8.83763L21.6018 9.4141C21.9995 9.45099 22.3371 9.72097 22.4605 10.1008C22.5839 10.4807 22.4695 10.8975 22.1694 11.1611L17.4798 15.2809L18.8523 21.3703C18.9401 21.7599 18.7876 22.1644 18.4645 22.3992C18.1414 22.6339 17.7096 22.6539 17.3662 22.45L11.9989 19.263L6.63159 22.45C6.28818 22.6539 5.85636 22.6339 5.53325 22.3992C5.21013 22.1644 5.05769 21.7599 5.1455 21.3703L6.51794 15.2809L1.82833 11.1611C1.52828 10.8975 1.41385 10.4807 1.53727 10.1008C1.66068 9.72097 1.99829 9.45099 2.39597 9.4141L8.61148 8.83763L11.0804 3.10447C11.2384 2.73765 11.5995 2.5 11.9989 2.5Z" fill="#0B75BA"/>
</svg>
