<svg width="23" height="19" viewBox="0 0 23 19" fill="none" xmlns="http://www.w3.org/2000/svg">
<path fill-rule="evenodd" clip-rule="evenodd" d="M16 0.5C13.5147 0.5 11.5 2.51472 11.5 5C11.5 7.48528 13.5147 9.5 16 9.5C18.4853 9.5 20.5 7.48528 20.5 5C20.5 2.51472 18.4853 0.5 16 0.5ZM13.5 5C13.5 3.61929 14.6193 2.5 16 2.5C17.3807 2.5 18.5 3.61929 18.5 5C18.5 6.38071 17.3807 7.5 16 7.5C14.6193 7.5 13.5 6.38071 13.5 5Z" fill="#CDCFD7"/>
<path d="M16.0001 10.5C11.59 10.5 9 14.0344 9 17.5H11C11 14.9656 12.8602 12.5 16.0001 12.5C19.1399 12.5 21 14.9656 21 17.5H23C23 14.0344 20.4102 10.5 16.0001 10.5Z" fill="#CDCFD7"/>
<path d="M0 18.5C0 15.1209 2.32886 11.5 6.50007 11.5C7.49694 11.5 8.40916 11.7134 9.21594 12.0968L8.35749 13.9032C7.8241 13.6497 7.20575 13.5 6.50007 13.5C3.75048 13.5 2 15.8791 2 18.5H0Z" fill="#CDCFD7"/>
<path fill-rule="evenodd" clip-rule="evenodd" d="M6.5 2.5C4.29086 2.5 2.5 4.29086 2.5 6.5C2.5 8.70914 4.29086 10.5 6.5 10.5C8.70914 10.5 10.5 8.70914 10.5 6.5C10.5 4.29086 8.70914 2.5 6.5 2.5ZM4.5 6.5C4.5 5.39543 5.39543 4.5 6.5 4.5C7.60457 4.5 8.5 5.39543 8.5 6.5C8.5 7.60457 7.60457 8.5 6.5 8.5C5.39543 8.5 4.5 7.60457 4.5 6.5Z" fill="#CDCFD7"/>
</svg>
