<svg width="20" height="21" viewBox="0 0 20 21" fill="none" xmlns="http://www.w3.org/2000/svg">
<path fill-rule="evenodd" clip-rule="evenodd" d="M3.67282 1.41896C4.59287 0.498911 6.13259 0.688462 6.80202 1.80418L8.74136 5.03641C9.21353 5.82337 9.08952 6.83068 8.44058 7.47962L7.41418 8.50602C7.62395 8.93608 8.15018 9.76608 9.44503 11.0609C10.7399 12.3558 11.5699 12.882 12 13.0918L13.0264 12.0654C13.6753 11.4165 14.6826 11.2925 15.4696 11.7646L18.7018 13.704C19.8175 14.3734 20.0071 15.9131 19.087 16.8332L16.5785 19.3417C16.022 19.8982 15.2186 20.2574 14.3381 20.1477C12.5913 19.9302 8.64514 19.0512 5.02369 15.4952C1.36808 11.9056 0.532455 7.88658 0.342116 6.1338C0.248055 5.26762 0.606835 4.48495 1.15109 3.94069L3.67282 1.41896ZM5.08703 2.83317L2.56531 5.3549C2.37504 5.54518 2.31234 5.75134 2.33043 5.91788C2.4908 7.39468 3.21028 10.9115 6.42496 14.0681C9.63218 17.2174 13.1085 17.9791 14.5852 18.1631C14.7574 18.1845 14.9705 18.1212 15.1642 17.9275L17.6728 15.419L14.4406 13.4796L13.2623 14.6579C12.9231 14.9971 12.3039 15.3325 11.5879 15.0846C10.8943 14.8445 9.75235 14.1967 8.03082 12.4751C6.30928 10.7536 5.66149 9.61167 5.42133 8.91801C5.17346 8.20204 5.50888 7.5829 5.84807 7.2437L7.02637 6.0654L5.08703 2.83317Z" fill="#CDCFD7"/>
</svg>
