<svg xmlns="http://www.w3.org/2000/svg" height="48" viewBox="0 0 48 48" width="48">
<g>
	<path fill="#0E7FA0" d="M29,17.4H19c-5.5,0-10,4.5-10,10c0,2.7,1.1,5.2,3,6.9l-0.5,2.3l-0.7,3.2l3.5-1.7l2.2-1
		c0.8,0.2,1.6,0.3,2.5,0.3h10c5.5,0,10-4.5,10-10C39,21.9,34.5,17.4,29,17.4z M17.6,30.5c-1.8,0-3.2-1.4-3.2-3.2
		c0-1.8,1.4-3.2,3.2-3.2c1.8,0,3.2,1.4,3.2,3.2C20.8,29.1,19.4,30.5,17.6,30.5z M30.4,30.5c-1.8,0-3.2-1.4-3.2-3.2
		c0-1.8,1.4-3.2,3.2-3.2c1.8,0,3.2,1.4,3.2,3.2C33.6,29.1,32.2,30.5,30.4,30.5z"/>
	<path fill="none" stroke="#000000" stroke-miterlimit="10" d="M25.1,9.7v-2c1.2-0.5,2.1-1.6,2.1-3c0-1.8-1.4-3.2-3.2-3.2s-3.2,1.4-3.2,3.2c0,1.4,0.9,2.5,2.1,3v2
		C13.2,10.3,5.5,18.3,5.5,28c0,10.2,8.3,18.5,18.5,18.5S42.5,38.2,42.5,28C42.5,18.4,34.8,10.3,25.1,9.7z"/>
</g>
</svg>
