<svg width="54" height="43" viewBox="0 0 54 43" fill="none" xmlns="http://www.w3.org/2000/svg">
<path d="M30.2572 21.8677H40.7237L46.4999 27.5135L46.6302 21.8677H49.4531C50.8863 21.8677 52.1024 20.6951 52.1024 19.2184V4.1917C52.1024 2.75852 50.9297 1.54248 49.4531 1.54248H26.3919C24.9587 1.54248 23.7427 2.71509 23.7427 4.1917V15.6138" stroke="white" stroke-width="2" stroke-miterlimit="10" stroke-linejoin="round"/>
<path d="M27.6514 35.8955H13.2761L7.49991 41.5414L7.36962 35.8955H4.54668C3.1135 35.8955 1.89746 34.7229 1.89746 33.2463V18.2195C1.89746 16.7863 3.07007 15.5703 4.54668 15.5703H27.6079C29.0411 15.5703 30.2571 16.7429 30.2571 18.2195V33.2897C30.2571 34.7229 29.0845 35.8955 27.6514 35.8955Z" stroke="white" stroke-width="2" stroke-miterlimit="10" stroke-linejoin="round"/>
<path d="M12.4509 25.0379C12.6681 25.2551 12.7984 25.5157 13.0155 25.7328C14.4053 27.166 16.0556 28.1649 18.01 28.5992C18.1837 28.6426 18.2705 28.6426 18.314 28.4255C18.3574 27.8609 18.4443 27.2963 18.5745 26.7752C18.7048 26.0368 19.3563 25.5591 20.0946 25.6894C21.3106 25.8631 22.5701 25.9934 23.7861 26.2106C24.5679 26.3408 25.0456 27.0357 24.9587 27.8175C24.8284 28.7295 24.6981 29.5981 24.5679 30.5101C24.481 31.2485 23.873 31.8565 23.0478 32.0302C20.3552 32.6382 17.706 32.4645 15.1002 31.3787C13.7104 30.8142 12.4509 29.989 11.3218 28.9901C10.1057 27.9043 9.10685 26.6014 8.41197 25.1248C7.93424 24.1693 7.54337 23.1704 7.36965 22.0847C7.23936 21.3898 7.45651 20.7384 8.0211 20.3041C8.75941 19.7829 9.49771 19.2617 10.236 18.784C11.1046 18.176 11.9298 18.4366 12.4944 19.3052C13.1024 20.2172 13.7104 21.1292 14.3619 22.0413C14.8396 22.6927 14.6224 23.6482 13.9276 24.0825C13.4933 24.3431 13.1024 24.6471 12.7115 24.9077C12.5812 24.9077 12.5378 24.9945 12.4509 25.0379Z" stroke="white" stroke-width="2" stroke-miterlimit="10" stroke-linejoin="round"/>
<path d="M29.2148 7.49219H46.2828" stroke="white" stroke-width="2" stroke-miterlimit="10" stroke-linecap="round" stroke-linejoin="round"/>
<path d="M29.2148 11.7485H46.2828" stroke="white" stroke-width="2" stroke-miterlimit="10" stroke-linecap="round" stroke-linejoin="round"/>
<path d="M38.3784 15.9609H46.5867" stroke="white" stroke-width="2" stroke-miterlimit="10" stroke-linecap="round" stroke-linejoin="round"/>
</svg>
