<svg width="20" height="20" viewBox="0 0 20 20" fill="none" xmlns="http://www.w3.org/2000/svg">
<path d="M9 11V5H11V11H9Z" fill="#C74952"/>
<path d="M10 15C9.30964 15 8.75 14.4404 8.75 13.75C8.75 13.0596 9.30964 12.5 10 12.5C10.6904 12.5 11.25 13.0596 11.25 13.75C11.25 14.4404 10.6904 15 10 15Z" fill="#C74952"/>
<path fill-rule="evenodd" clip-rule="evenodd" d="M10 20C4.47715 20 0 15.5228 0 10C0 4.47715 4.47715 0 10 0C15.5228 0 20 4.47715 20 10C20 15.5228 15.5228 20 10 20ZM10 18C14.4183 18 18 14.4183 18 10C18 5.58172 14.4183 2 10 2C5.58172 2 2 5.58172 2 10C2 14.4183 5.58172 18 10 18Z" fill="#C74952"/>
</svg>
